#!OML:ASF H:\Not Pregnant\Project 1\Capture day 1\Session 1\non-pregnant.ASF
:FULLY-SPECIFIED
:DEGREES
824
root -4.98827 16.3385 -17.9535 140.67 -84.4433 -129.011
lowerback -0.740282 1.75542 1.21427
upperback -8.79132 2.13698 0.190522
thorax -8.77691 0.846517 -0.60357
lowerneck 19.0506 -9.03439 -31.3661
upperneck -12.436 -18.1895 42.4259
head 1.25115 -11.8036 21.9191
rclavicle -6.31141e-015 3.57812e-015
rhumerus -41.7975 -11.2044 -74.7512
rradius 27.7563
rwrist 25.7663
rhand -9.00213 3.82845
rfingers 7.12502
rthumb 16.9444 -25.4524
lclavicle -6.31141e-015 3.57812e-015
lhumerus -53.7106 10.9958 61.5418
lradius 36.8175
lwrist 41.2499
lhand -20.2327 -14.0422
lfingers 7.12502
lthumb 6.11512 15.8496
rfemur -17.4685 4.68607 8.36867
rtibia 25.5257
rfoot -21.7607 8.20874
rtoes -31.5637
lfemur -13.5105 -0.752469 12.2112
ltibia 23.0148
lfoot 14.181 7.81103
ltoes -27.731
825
root -4.97373 16.3787 -18.0839 140.757 -84.2842 -129.01
lowerback -0.778505 1.81477 1.38128
upperback -8.77304 2.22263 0.176211
thorax -8.72588 0.876398 -0.715899
lowerneck 18.9095 -9.00336 -31.3763
upperneck -12.3791 -18.132 42.5203
head 1.28536 -11.7759 21.9792
rclavicle 3.08116e-015 5.96354e-015
rhumerus -41.5742 -11.3329 -74.6439
rradius 27.3925
rwrist 26.1422
rhand -8.64212 3.63049
rfingers 7.12502
rthumb 17.2909 -25.6203
lclavicle 3.08116e-015 5.96354e-015
lhumerus -53.879 11.2616 61.6423
lradius 36.482
lwrist 41.0532
lhand -20.2371 -13.7894
lfingers 7.12502
lthumb 6.11096 16.1024
rfemur -17.5719 4.70615 9.01987
rtibia 25.3479
rfoot -21.6134 8.49337
rtoes -30.9741
lfemur -13.7491 -1.74813 12.4862
ltibia 23.1228
lfoot 15.6265 9.4756
ltoes -24.9896
826
root -4.9566 16.4189 -18.207 140.735 -84.154 -128.856
lowerback -0.819268 1.86652 1.59873
upperback -8.77595 2.29793 0.149794
thorax -8.69421 0.896041 -0.868371
lowerneck 18.7729 -8.96945 -31.3931
upperneck -12.3286 -18.0705 42.6092
head 1.31522 -11.7455 22.0398
rclavicle 8.15017e-015 -1.59028e-014
rhumerus -41.3569 -11.4593 -74.5201
rradius 27.0398
rwrist 26.5377
rhand -8.35209 3.44602
rfingers 7.12502
rthumb 17.57 -25.7801
lclavicle 8.15017e-015 -1.59028e-014
lhumerus -54.0421 11.473 61.8177
lradius 36.1685
lwrist 40.8633
lhand -20.1365 -13.4629
lfingers 7.12502
lthumb 6.20807 16.4261
rfemur -17.6967 4.59425 9.63703
rtibia 25.0981
rfoot -21.4266 8.86409
rtoes -30.3734
lfemur -14.1408 -2.76489 12.7079
ltibia 23.3949
lfoot 16.4795 11.2001
ltoes -21.6469
827
root -4.93767 16.4578 -18.3248 140.687 -84.0572 -128.663
lowerback -0.844534 1.91588 1.82852
upperback -8.78683 2.36992 0.11367
thorax -8.67923 0.912392 -1.03821
lowerneck 18.6409 -8.94002 -31.4162
upperneck -12.2895 -18.0143 42.693
head 1.34363 -11.7169 22.0978
rclavicle -1.49089e-016 -1.66979e-014
rhumerus -41.1556 -11.6101 -74.3666
rradius 26.7027
rwrist 26.9686
rhand -8.12741 3.29469
rfingers 7.12502
rthumb 17.7862 -25.9119
lclavicle -1.49089e-016 -1.66979e-014
lhumerus -54.1906 11.6343 62.0727
lradius 35.8829
lwrist 40.654
lhand -19.9296 -13.0743
lfingers 7.12502
lthumb 6.40783 16.8087
rfemur -17.8263 4.4004 10.2171
rtibia 24.8258
rfoot -21.2258 9.27344
rtoes -29.7536
lfemur -14.6487 -3.6375 12.8359
ltibia 23.816
lfoot 16.6435 12.4845
ltoes -18.3424
828
root -4.91776 16.4946 -18.4393 140.547 -83.9912 -128.397
lowerback -0.837232 1.96061 2.04036
upperback -8.79375 2.43653 0.0782531
thorax -8.6795 0.927591 -1.19799
lowerneck 18.5143 -8.91719 -31.4461
upperneck -12.2633 -17.9665 42.7712
head 1.37133 -11.6918 22.1521
rclavicle 1.18774e-014 3.18055e-015
rhumerus -40.9688 -11.7585 -74.1942
rradius 26.3848
rwrist 27.4092
rhand -8.00299 3.17214
rfingers 7.12502
rthumb 17.906 -26.0236
lclavicle 1.18774e-014 3.18055e-015
lhumerus -54.3186 11.7277 62.4154
lradius 35.6338
lwrist 40.4511
lhand -19.5938 -12.6126
lfingers 7.12502
lthumb 6.73197 17.2604
rfemur -17.9366 4.19388 10.773
rtibia 24.5729
rfoot -21.0352 9.6474
rtoes -29.1292
lfemur -15.2266 -4.28245 12.863
ltibia 24.365
lfoot 16.0836 13.0825
ltoes -15.3045
829
root -4.89771 16.5282 -18.5526 140.425 -83.9412 -128.191
lowerback -0.791573 2.00735 2.19899
upperback -8.7868 2.50655 0.0487321
thorax -8.68882 0.9493 -1.32336
lowerneck 18.3983 -8.90289 -31.4725
upperneck -12.2548 -17.9279 42.8453
head 1.39552 -11.6716 22.2018
rclavicle -2.44505e-014 -7.15625e-015
rhumerus -40.7983 -11.8729 -74.0249
rradius 26.0956
rwrist 27.8074
rhand -7.94545 3.08022
rfingers 7.12502
rthumb 17.9613 -26.1104
lclavicle -2.44505e-014 -7.15625e-015
lhumerus -54.4211 11.7282 62.8662
lradius 35.4238
lwrist 40.2286
lhand -19.1804 -12.1266
lfingers 7.12502
lthumb 7.13097 17.7333
rfemur -18.0143 4.04332 11.3104
rtibia 24.368
rfoot -20.8694 9.93397
rtoes -28.5058
lfemur -15.8324 -4.63052 12.7668
ltibia 25.0344
lfoot 14.8795 12.8815
ltoes -12.9205
830
root -4.87882 16.5587 -18.6651 140.29 -83.9214 -128.047
lowerback -0.694713 2.05201 2.2959
upperback -8.75422 2.57489 0.018163
thorax -8.70206 0.975913 -1.41699
lowerneck 18.2956 -8.90106 -31.4759
upperneck -12.2649 -17.8996 42.9121
head 1.41298 -11.6574 22.2402
rclavicle 3.08116e-015 -1.03368e-014
rhumerus -40.6495 -11.962 -73.864
rradius 25.8445
rwrist 28.1616
rhand -7.95898 3.01619
rfingers 7.12502
rthumb 17.9483 -26.1756
lclavicle 3.08116e-015 -1.03368e-014
lhumerus -54.4955 11.6269 63.4232
lradius 35.249
lwrist 39.9716
lhand -18.6419 -11.6337
lfingers 7.12502
lthumb 7.65077 18.208
rfemur -18.0207 3.96765 11.8197
rtibia 24.2261
rfoot -20.7473 10.1083
rtoes -27.8859
lfemur -16.4306 -4.72888 12.5169
ltibia 25.8159
lfoot 13.1581 12.0558
ltoes -11.3607
831
root -4.8598 16.5863 -18.7742 140.352 -83.9207 -128.116
lowerback -0.585558 2.09781 2.36829
upperback -8.71442 2.64413 -0.0217095
thorax -8.7148 1.00475 -1.50735
lowerneck 18.1973 -8.90615 -31.4725
upperneck -12.2872 -17.8775 42.9762
head 1.42801 -11.6466 22.274
rclavicle 1.52567e-014 1.11319e-014
rhumerus -40.5036 -11.9616 -73.743
rradius 25.6333
rwrist 28.4161
rhand -8.01571 2.97264
rfingers 7.12502
rthumb 17.8937 -26.2242
lclavicle 1.52567e-014 1.11319e-014
lhumerus -54.5574 11.467 64.0506
lradius 35.1154
lwrist 39.6498
lhand -17.9484 -11.1288
lfingers 7.12502
lthumb 8.32016 18.6874
rfemur -18.0437 3.91829 12.2823
rtibia 24.1537
rfoot -20.6618 10.2364
rtoes -27.261
lfemur -17.0681 -4.64416 12.1117
ltibia 26.702
lfoot 11.0587 11.0427
ltoes -10.328
832
root -4.84113 16.6113 -18.8798 140.809 -83.938 -128.596
lowerback -0.470701 2.14287 2.39474
upperback -8.66529 2.71082 -0.0659857
thorax -8.72215 1.03602 -1.57685
lowerneck 18.0882 -8.91575 -31.467
upperneck -12.3075 -17.8571 43.0302
head 1.44439 -11.6343 22.2982
rclavicle -1.75427e-014 -3.97569e-015
rhumerus -40.3564 -11.8739 -73.6593
rradius 25.4647
rwrist 28.5841
rhand -8.14967 2.9195
rfingers 7.12502
rthumb 17.7648 -26.289
lclavicle -1.75427e-014 -3.97569e-015
lhumerus -54.6223 11.2605 64.7529
lradius 35.0286
lwrist 39.2752
lhand -17.0664 -10.6209
lfingers 7.12502
lthumb 9.1713 19.1596
rfemur -18.086 3.89362 12.6826
rtibia 24.1526
rfoot -20.6195 10.336
rtoes -26.6327
lfemur -17.7224 -4.42412 11.5319
ltibia 27.6826
lfoot 8.77853 10.1348
ltoes -9.93487
833
root -4.82325 16.6337 -18.9829 141.684 -83.964 -129.524
lowerback -0.345041 2.19279 2.37251
upperback -8.60134 2.78277 -0.113027
thorax -8.72106 1.07412 -1.62287
lowerneck 18.0364 -8.88189 -31.6285
upperneck -12.2387 -17.911 42.7516
head 1.49302 -11.6457 22.7969
rclavicle 7.00716e-015 1.59028e-015
rhumerus -40.2102 -11.7442 -73.5842
rradius 25.3339
rwrist 28.6947
rhand -8.31761 2.87397
rfingers 7.12502
rthumb 17.6032 -26.3491
lclavicle 7.00716e-015 1.59028e-015
lhumerus -54.685 11.0427 65.5015
lradius 34.9724
lwrist 38.7732
lhand -16.0177 -10.1522
lfingers 7.12502
lthumb 10.1831 19.5814
rfemur -18.1303 3.90905 13.0277
rtibia 24.2209
rfoot -20.6244 10.4042
rtoes -25.9965
lfemur -18.3619 -4.11406 10.7953
ltibia 28.7529
lfoot 6.45882 9.55607
ltoes -10.0265
834
root -4.80573 16.6529 -19.0841 142.872 -83.9834 -130.791
lowerback -0.20648 2.24466 2.31218
upperback -8.52728 2.85634 -0.160663
thorax -8.71796 1.11621 -1.64896
lowerneck 17.9154 -8.90043 -31.6321
upperneck -12.2579 -17.9021 42.7952
head 1.51789 -11.6367 22.8122
rclavicle -5.1684e-015 9.54166e-015
rhumerus -40.074 -11.587 -73.5318
rradius 25.2426
rwrist 28.7557
rhand -8.53163 2.81522
rfingers 7.12502
rthumb 17.3973 -26.4262
lclavicle -5.1684e-015 9.54166e-015
lhumerus -54.7555 10.8132 66.2701
lradius 34.9604
lwrist 38.1782
lhand -14.8171 -9.73609
lfingers 7.12502
lthumb 11.3411 19.9373
rfemur -18.1808 3.97795 13.3401
rtibia 24.3572
rfoot -20.6724 10.4264
rtoes -25.3663
lfemur -18.9709 -3.73911 9.94912
ltibia 29.9019
lfoot 4.17537 9.42205
ltoes -10.401
835
root -4.78891 16.6693 -19.1827 144.373 -83.991 -132.399
lowerback -0.0551956 2.30626 2.23199
upperback -8.44479 2.94214 -0.216319
thorax -8.7131 1.16577 -1.67387
lowerneck 17.7967 -8.92439 -31.6234
upperneck -12.2777 -17.8979 42.8343
head 1.54185 -11.6301 22.8192
rclavicle -1.35671e-014 -2.26615e-014
rhumerus -39.9622 -11.4408 -73.4819
rradius 25.1954
rwrist 28.7797
rhand -8.85563 2.70492
rfingers 7.12502
rthumb 17.0854 -26.5638
lclavicle -1.35671e-014 -2.26615e-014
lhumerus -54.8288 10.5833 67.0463
lradius 34.982
lwrist 37.4789
lhand -13.5075 -9.40975
lfingers 7.12502
lthumb 12.604 20.19
rfemur -18.2352 4.09634 13.6189
rtibia 24.5574
rfoot -20.7589 10.4106
rtoes -24.7239
lfemur -19.5498 -3.27999 8.98407
ltibia 31.1246
lfoot 2.04434 9.58856
ltoes -11.6027
836
root -4.77236 16.6826 -19.2789 145.948 -83.974 -134.088
lowerback 0.0999118 2.38135 2.16696
upperback -8.36079 3.04622 -0.279627
thorax -8.70706 1.22289 -1.71696
lowerneck 17.6964 -8.9523 -31.6151
upperneck -12.3099 -17.9038 42.8803
head 1.56491 -11.6312 22.8311
rclavicle -1.7344e-014 -1.07344e-014
rhumerus -39.8822 -11.3224 -73.4327
rradius 25.1921
rwrist 28.7709
rhand -9.21243 2.57407
rfingers 7.12502
rthumb 16.7419 -26.724
lclavicle -1.7344e-014 -1.07344e-014
lhumerus -54.896 10.3392 67.8212
lradius 35.0365
lwrist 36.7075
lhand -12.1348 -9.19544
lfingers 7.12502
lthumb 13.9271 20.3181
rfemur -18.3063 4.2678 13.8949
rtibia 24.8126
rfoot -20.8702 10.3428
rtoes -24.0607
lfemur -20.1224 -2.72004 7.95018
ltibia 32.4197
lfoot 0.0771226 9.90817
ltoes -13.4423
